<svg xmlns="http://www.w3.org/2000/svg" width="24" height="24" viewBox="0 0 24 24" fill="none" stroke="currentColor" stroke-width="2" stroke-linecap="round" stroke-linejoin="round"><path d="M20.2 4.8c-1.5 1.6-3.5 2.7-5.8 3.2 1.5-1.1 2.5-2.8 3-4.8-1.4.8-2.9 1.4-4.5 1.7-1.3-1.4-3.2-2.3-5.3-2.3-4 0-7.2 3.2-7.2 7.2 0 .6.1 1.1.2 1.6-6-.3-11.3-3.2-14.8-7.5-.6 1.1-1 2.3-1 3.7 0 2.5 1.3 4.7 3.2 6-1.2-.1-2.3-.4-3.3-1v.1c0 3.5 2.5 6.4 5.8 7.1-.6.2-1.2.3-1.9.3-.5 0-.9-.1-1.4-.1.9 2.9 3.6 5 6.8 5-2.5 1.9-5.6 3.1-9 3.1-.6 0-1.2-.1-1.8-.1 3.2 2.1 7 3.3 11.2 3.3 13.4 0 20.7-11.1 20.7-20.7v-.9c1.4-1 2.6-2.3 3.6-3.7z"/></svg>