<?xml version="1.0" standalone="no"?><!DOCTYPE svg PUBLIC "-//W3C//DTD SVG 1.1//EN" "http://www.w3.org/Graphics/SVG/1.1/DTD/svg11.dtd"><svg t="1751291823803" class="icon" viewBox="0 0 1024 1024" version="1.1" xmlns="http://www.w3.org/2000/svg" p-id="28628" xmlns:xlink="http://www.w3.org/1999/xlink" width="32" height="32"><path d="M853.312 0A170.688 170.688 0 0 1 1024 170.688v682.624A170.688 170.688 0 0 1 853.312 1024H170.688A170.688 170.688 0 0 1 0 853.312V170.688A170.688 170.688 0 0 1 170.688 0h682.624z m0 64H170.688c-55.808 0-101.632 42.88-106.24 97.472L64 170.688v682.624c0 55.808 42.88 101.632 97.472 106.24l9.216 0.448h682.624c55.808 0 101.632-42.88 106.24-97.472l0.448-9.216V170.688c0-55.808-42.88-101.632-97.472-106.24L853.312 64z m-103.552 292.16v25.152h36.8c27.52 0 51.968 25.152 48.896 53.44v50.368h12.288c30.528 0 51.968 21.952 48.896 53.44v75.392a41.088 41.088 0 0 1-39.68 40.896h-42.88l-18.368-43.968h52.032v-75.52h-97.92v116.288h-52.032V532.224h-51.968V481.92h52.032v-50.304h-36.736v-50.304h36.672v-25.152h51.968z m-501.632 6.4v254.592s-6.144 34.56-24.512 34.56H174.72l-18.368-44.032h36.672v-245.12h55.04z m208 238.848l-21.44 50.304H349.056l27.52-50.304h79.616z m168.32-223.232v56.576h-27.584v166.656h45.888v50.304H465.28l24.512-53.44h48.96V431.68h-36.672v-53.504h122.304z m-284.608 56.576c-3.008 34.624 0 72.32 6.208 113.28 3.008 9.408 3.008 18.752 6.08 25.088 0 0-12.16 15.68-30.592 53.44-42.88-34.56-36.672-191.808-36.672-191.808z m-183.488-3.2l0.064 3.2v8.64c-0.192 37.248-3.648 151.232-36.8 180.032-21.376-34.56-30.592-53.44-30.592-53.44 3.072-9.472 6.144-15.744 6.144-25.152 7.808-37.12 9.856-75.392 6.08-113.28z m312-69.12l-27.52 78.592h45.952l-45.952 94.336h39.68l-15.296 40.96H398.08c-9.216 0-15.36-9.472-12.288-18.88l30.592-72.32h-27.52c-9.216 0-15.36-9.472-12.224-18.88l39.808-103.808h51.968z m318.208 69.12h-36.8v53.568h36.8v-53.504z m88.64-50.24a26.688 26.688 0 0 1 24.512 25.216 26.688 26.688 0 0 1-24.512 25.088h-24.448v-25.088a26.688 26.688 0 0 1 24.448-25.216z" p-id="28629"></path></svg>