<svg style="padding:3px;" fill="#000" width="32" height="32" xmlns="http://www.w3.org/2000/svg" version="1.0" viewBox="0 0 2500.000000 2500.000000" preserveAspectRatio="xMidYMid meet"><g transform="translate(0.000000,2500.000000) scale(0.100000,-0.100000)" stroke="none"><path d="M2025 24970 l180 -5 -85 -13 c-798 -123 -1498 -639 -1855 -1367 -40 -82 -89 -193 -108 -245 -45 -121 -112 -391 -134 -540 -16 -108 -18 -694 -21 -10200 -2 -7158 0 -10131 8 -10243 25 -362 99 -643 255 -962 125 -255 276 -467 475 -665 345 -345 769 -574 1260 -683 l145 -32 10295 -3 c7674 -2 10318 0 10385 8 803 102 1532 622 1900 1356 142 284 225 576 255 897 8 78 10 3196 8 10287 -3 9571 -4 10181 -21 10280 -70 431 -232 816 -486 1154 -97 129 -348 381 -473 474 -354 264 -751 431 -1163 489 -49 6 -22 9 145 13 113 3 -4599 6 -10470 6 -5871 0 -10594 -3 -10495 -6z m19837 -1561 c26 -13 73 -24 125 -29 77 -7 96 -13 227 -79 329 -163 619 -396 847 -678 147 -183 329 -496 329 -569 1 -21 7 -57 15 -79 13 -35 15 -1283 15 -9456 0 -8348 -2 -9421 -15 -9452 -8 -20 -15 -59 -15 -87 0 -40 -9 -69 -45 -139 -193 -385 -489 -720 -851 -963 -137 -92 -358 -206 -469 -242 l-80 -26 -9390 3 c-6439 3 -9410 7 -9455 14 -110 18 -326 123 -521 254 -378 254 -702 634 -885 1038 -41 91 -55 134 -59 184 -3 35 -12 81 -20 101 -13 31 -15 1105 -15 9351 l0 9316 35 91 c220 568 661 1054 1208 1329 139 70 198 95 287 119 62 16 524 17 9378 19 l9313 1 41 -21z"></path><path d="M10892 15713 c-25 -3 -45 -10 -49 -19 -3 -8 -13 -14 -23 -14 -9 0 -24 -8 -32 -17 -30 -34 -110 -194 -104 -208 3 -8 1 -15 -5 -15 -5 0 -15 -13 -20 -30 -6 -16 -15 -30 -20 -30 -5 0 -9 -5 -9 -10 0 -6 -36 -83 -80 -172 -44 -89 -80 -167 -80 -175 0 -7 -4 -13 -8 -13 -10 0 -52 -85 -52 -104 0 -7 -8 -24 -19 -37 -10 -13 -29 -49 -41 -79 -13 -30 -32 -68 -43 -83 -10 -15 -16 -34 -13 -43 3 -8 -4 -24 -15 -35 -12 -12 -34 -51 -51 -87 -16 -37 -34 -74 -39 -82 -5 -8 -23 -44 -40 -80 -29 -60 -59 -124 -175 -367 -24 -50 -44 -97 -44 -104 0 -7 -6 -20 -13 -28 -8 -9 -21 -34 -29 -56 -9 -22 -28 -66 -42 -97 -14 -31 -26 -59 -26 -63 0 -3 -11 -22 -24 -43 -13 -20 -37 -73 -52 -117 -22 -66 -27 -98 -28 -180 -1 -88 2 -107 25 -156 31 -66 105 -140 163 -164 23 -9 50 -22 61 -28 67 -35 119 -40 465 -44 190 -3 349 -8 354 -13 10 -10 -10 -61 -89 -225 -29 -60 -71 -148 -92 -195 -22 -47 -54 -114 -71 -150 -77 -160 -142 -300 -142 -307 0 -4 -13 -35 -29 -68 -71 -148 -101 -213 -101 -218 0 -4 -13 -36 -30 -72 -16 -35 -31 -79 -32 -96 -1 -17 -8 -34 -15 -36 -24 -9 -53 -131 -55 -232 -2 -86 0 -102 24 -151 59 -121 138 -178 299 -215 l113 -26 575 -2 c608 -2 639 0 679 43 18 19 87 151 222 420 34 69 67 134 73 145 6 11 22 43 35 70 13 28 28 57 33 65 5 8 33 63 63 122 39 78 51 110 43 116 -7 6 -137 12 -290 15 -266 5 -280 6 -325 29 -83 41 -89 94 -25 238 14 30 26 62 28 71 2 8 14 32 27 51 14 20 30 51 37 69 7 19 17 41 22 49 33 56 199 394 199 406 0 8 4 14 8 14 5 0 21 28 36 63 16 34 32 69 37 77 10 16 116 229 134 267 15 34 147 296 156 313 5 8 21 40 35 70 15 30 32 66 39 80 106 202 182 368 175 385 -7 20 -18 20 -541 23 -472 2 -540 0 -586 -14 -63 -20 -126 -72 -154 -125 -10 -21 -23 -39 -28 -39 -34 0 -67 172 -41 218 22 39 100 216 100 226 0 6 11 27 24 46 13 19 58 105 100 190 42 85 82 163 87 173 6 11 37 74 71 140 33 67 111 224 174 349 63 125 114 232 114 238 0 6 11 27 24 48 13 20 30 54 37 74 25 71 49 68 -520 66 -278 -1 -525 -3 -549 -5z"></path><path d="M17167 15683 c-3 -21 -9 -105 -13 -188 -4 -82 -11 -158 -16 -167 -8 -16 -39 -18 -381 -20 l-372 -3 0 -590 0 -590 380 -5 380 -5 2 -479 c1 -263 4 -481 7 -484 3 -3 6 -9 6 -13 0 -5 -262 -8 -581 -8 -363 0 -585 -3 -591 -9 -12 -12 -11 -1173 0 -1184 4 -4 274 -8 600 -8 326 -1 592 -5 592 -10 0 -5 -4 -12 -10 -15 -13 -8 -14 -2524 0 -2545 8 -13 85 -15 578 -18 373 -2 578 1 595 7 l28 11 -1 1276 c-1 789 2 1280 8 1286 6 6 322 8 828 6 l819 -4 74 -25 c85 -30 139 -71 177 -134 50 -85 50 -96 50 -770 l-1 -630 -575 -5 c-316 -3 -576 -7 -577 -8 -2 -1 -3 -39 -3 -84 0 -110 34 -247 89 -358 50 -103 59 -117 86 -134 14 -9 25 -25 25 -34 0 -22 101 -128 130 -137 11 -3 20 -12 20 -19 0 -15 66 -63 135 -98 102 -52 181 -88 203 -93 36 -8 54 -12 132 -33 131 -34 193 -42 327 -42 131 0 247 11 333 31 160 37 280 80 280 99 0 6 13 10 29 10 39 0 188 99 271 181 78 76 100 106 100 136 0 15 7 23 22 25 17 2 33 25 65 88 43 87 78 185 74 208 -1 8 3 19 8 26 23 28 30 184 34 781 5 783 -4 1243 -26 1340 -29 128 -116 341 -146 360 -6 3 -18 22 -27 41 -21 44 -191 214 -214 214 -10 0 -20 6 -23 14 -7 18 -131 91 -192 114 -25 9 -45 20 -45 24 0 4 -10 8 -23 8 -13 0 -27 3 -31 7 -20 21 -240 76 -366 92 -47 7 -130 19 -186 28 l-100 16 -11 36 c-8 26 -8 39 -1 49 8 9 9 135 5 420 -7 412 -16 524 -52 651 -9 31 -23 81 -32 111 -15 53 -30 91 -75 190 -63 136 -252 361 -367 436 -24 16 -54 36 -67 44 -48 33 -117 70 -128 70 -7 0 -16 4 -22 9 -24 24 -232 90 -285 91 -14 0 -29 4 -35 9 -21 22 -288 42 -511 39 -122 -1 -225 1 -229 5 -5 4 -3 17 4 27 15 24 17 246 2 255 -5 3 -10 16 -10 28 0 12 -11 36 -24 52 l-24 30 -560 3 -559 2 -6 -37z m1597 -1575 c40 -8 72 -22 100 -45 23 -18 49 -36 59 -39 9 -4 17 -16 17 -28 0 -12 6 -28 13 -34 9 -10 12 -107 12 -415 l0 -402 -295 0 -295 0 -5 40 c-3 22 -4 239 -2 482 l2 443 30 7 c42 11 294 5 364 -9z"></path><path d="M5853 15697 c-4 -7 -10 -1218 -13 -2692 l-5 -2680 -377 -3 c-327 -2 -378 -4 -378 -17 0 -8 6 -15 13 -15 7 -1 4 -6 -7 -15 -18 -13 -17 -17 3 -135 11 -66 34 -154 51 -196 16 -42 30 -81 30 -87 1 -21 93 -164 144 -222 61 -70 182 -170 217 -178 14 -4 36 -15 48 -27 13 -11 39 -22 57 -26 19 -3 34 -10 34 -14 0 -8 48 -20 95 -23 17 -1 35 -7 40 -14 20 -23 310 -40 410 -24 91 15 158 32 169 42 6 5 16 9 24 9 18 0 71 22 142 60 42 22 54 34 53 49 -2 13 3 21 12 21 8 0 15 -5 15 -10 0 -20 39 10 123 93 45 45 91 100 102 122 11 22 30 53 43 68 12 16 22 37 22 47 0 10 4 21 9 25 14 8 53 112 62 165 4 25 15 72 24 105 8 33 20 116 26 185 15 187 13 5368 -2 5386 -16 19 -1174 20 -1186 1z"></path><path d="M20805 15315 c-69 -14 -95 -24 -113 -42 -7 -7 -19 -13 -27 -13 -20 0 -58 -22 -94 -55 -111 -102 -165 -179 -177 -252 -3 -24 -10 -43 -15 -43 -26 0 -49 -166 -48 -338 0 -53 0 -150 -1 -214 -1 -98 2 -122 19 -153 23 -43 44 -60 86 -69 54 -11 654 9 667 22 7 7 21 12 33 12 11 0 30 11 43 25 13 13 29 22 37 19 24 -9 165 96 165 123 0 8 12 25 28 37 36 31 88 137 108 222 25 107 15 246 -25 350 -107 277 -393 431 -686 369z"></path><path d="M12807 15303 c-12 -11 -8 -924 4 -988 16 -88 60 -145 128 -166 20 -6 97 -13 171 -15 298 -9 346 -12 380 -27 48 -21 79 -57 94 -108 17 -63 10 -3430 -8 -3454 -10 -14 -44 -17 -241 -22 -159 -3 -250 -1 -295 7 -105 20 -228 27 -329 20 -81 -6 -97 -10 -113 -30 -10 -13 -24 -20 -33 -16 -25 9 -73 -5 -100 -30 -14 -13 -32 -24 -39 -24 -8 0 -16 -7 -20 -15 -3 -8 -12 -15 -20 -15 -20 0 -135 -129 -143 -160 -3 -14 -11 -30 -18 -35 -18 -15 -60 -102 -79 -165 -9 -30 -22 -63 -27 -74 -6 -10 -19 -44 -29 -75 -16 -49 -34 -91 -62 -141 -4 -8 -19 -40 -33 -70 -14 -30 -30 -62 -35 -70 -5 -8 -28 -51 -51 -95 -46 -89 -56 -108 -83 -148 -12 -18 -15 -32 -9 -38 13 -13 4144 -12 4157 1 7 7 7 16 -1 29 -7 12 -8 22 -2 28 6 6 9 208 7 536 l-3 526 -24 23 c-14 12 -32 24 -40 27 -9 2 -267 6 -573 8 l-558 4 0 1493 c0 821 3 1602 7 1735 l6 242 28 42 c45 68 84 76 384 80 237 2 252 3 292 25 79 42 77 19 77 614 1 289 -3 530 -7 535 -10 10 -2751 16 -2760 6z"></path><path d="M3892 14113 c-62 -25 -55 -19 -77 -62 -13 -27 -19 -77 -26 -220 -5 -102 -12 -204 -14 -226 -3 -22 -12 -101 -21 -175 -8 -74 -19 -164 -24 -200 -13 -87 -39 -473 -50 -750 -12 -299 -27 -481 -51 -620 -10 -63 -19 -129 -19 -146 0 -31 -94 -424 -110 -459 -16 -36 -22 -85 -11 -85 6 0 11 -7 11 -15 0 -8 68 -149 151 -312 84 -164 158 -311 166 -328 8 -16 18 -37 24 -45 5 -8 29 -55 54 -105 25 -49 90 -175 144 -280 93 -180 100 -190 129 -193 27 -3 34 2 55 35 29 46 127 237 127 247 0 5 8 20 19 34 31 44 131 245 131 263 0 10 5 19 10 21 11 3 110 214 110 233 0 12 21 60 41 99 17 31 49 137 49 163 0 13 6 34 14 46 17 26 56 174 56 211 0 14 7 47 16 72 9 26 20 73 25 103 4 31 15 101 24 155 8 55 15 125 15 156 0 32 5 82 10 111 12 63 27 212 35 354 3 55 10 138 15 185 5 47 11 146 14 221 3 74 8 142 10 150 3 8 10 73 15 144 10 134 33 415 51 610 6 61 15 164 20 230 5 66 14 167 20 225 6 67 6 108 0 114 -6 6 -6 14 2 23 7 8 7 17 2 23 -5 4 -256 10 -559 12 -546 3 -549 3 -603 -19z"></path><path d="M7805 14121 c-3 -6 0 -53 9 -104 8 -50 18 -128 21 -172 3 -44 18 -179 32 -300 14 -121 26 -238 28 -260 6 -83 43 -429 65 -615 6 -47 15 -130 21 -185 6 -55 14 -134 19 -175 4 -41 15 -138 24 -215 36 -311 53 -453 66 -545 5 -36 16 -119 24 -185 45 -363 90 -578 153 -730 14 -33 32 -78 41 -100 9 -22 22 -44 29 -48 7 -4 13 -17 13 -27 0 -25 18 -66 52 -117 15 -23 28 -46 28 -52 0 -5 8 -16 19 -23 10 -7 28 -35 41 -63 24 -55 62 -117 96 -155 12 -14 25 -35 29 -48 3 -12 23 -30 43 -40 31 -15 37 -22 34 -45 -2 -18 2 -27 12 -27 13 0 25 21 76 135 10 22 27 58 38 80 12 22 36 71 54 109 63 131 315 631 352 697 81 146 112 304 86 431 -7 35 -28 99 -45 143 -33 81 -38 114 -51 325 -3 52 -7 102 -9 110 -2 8 -7 74 -10 145 -7 147 -13 187 -29 197 -8 5 -8 10 1 19 12 12 12 22 -13 274 -7 83 -18 229 -24 325 -6 96 -13 201 -15 234 -15 193 -27 332 -36 411 -15 132 -17 166 -24 315 -6 119 -10 142 -35 198 -21 45 -37 65 -57 73 -40 16 -1148 25 -1158 10z"></path><path d="M9944 10551 c-18 -12 -45 -62 -39 -71 3 -5 -1 -12 -9 -17 -7 -4 -25 -35 -40 -68 -14 -33 -31 -67 -36 -75 -9 -13 -43 -79 -101 -192 -10 -20 -19 -49 -19 -63 0 -14 -6 -25 -13 -25 -20 0 -137 -233 -130 -259 5 -18 2 -22 -13 -19 -13 2 -21 -6 -28 -27 -6 -16 -14 -32 -17 -35 -11 -8 -139 -263 -139 -276 0 -27 201 -70 284 -61 28 4 155 2 281 -4 127 -5 451 -13 720 -18 577 -10 544 -15 602 87 21 37 47 88 58 113 11 25 28 57 38 72 9 14 17 35 17 46 0 11 6 24 13 28 12 8 67 112 67 127 0 5 8 20 19 34 31 45 61 102 61 118 0 8 11 30 24 47 43 58 59 97 45 113 -9 11 -8 14 7 14 20 0 74 90 74 123 0 9 4 17 9 17 4 0 26 35 47 78 21 42 51 99 67 126 21 36 25 52 17 60 -12 12 -1849 20 -1866 7z"></path></g></svg>