<svg xmlns="http://www.w3.org/2000/svg" viewBox="0 0 1024 1024">
<path fill="currentColor" d="M837.818182 116.363636a139.636364 139.636364 0 0 1 139.636363 139.636364v512a139.636364 139.636364 0 0 1-139.636363 139.636364H186.181818a139.636364 139.636364 0 0 1-139.636363-139.636364v-512a139.636364 139.636364 0 0 1 139.636363-139.636364h651.636364zM837.818182 186.181818H186.181818a69.818182 69.818182 0 0 0-69.492363 63.115637L116.363636 256v512a69.818182 69.818182 0 0 0 63.115637 69.492364L186.181818 837.818182h651.636364a69.818182 69.818182 0 0 0 69.492363-63.069091l0.325819-6.749091v-512a69.818182 69.818182 0 0 0-63.069091-69.492364L837.818182 186.181818z"></path>
<path fill="currentColor" d="M203.822545 454.656a298.542545 298.542545 0 0 1-36.352 93.184l38.167273 24.994909a340.061091 340.061091 0 0 0 39.098182-107.287273l-40.96-10.891636z m52.736 126.789818c-0.465455 3.630545-2.327273 5.585455-5.445818 5.911273H221.090909l17.268364 42.077091h27.741091c9.216 0 16.942545-1.908364 23.04-5.725091 6.144-3.770182 9.355636-10.007273 9.681454-18.618182V412.392727h-42.263273v169.053091z m50.455273-110.917818c16.197818 37.143273 29.975273 72.610909 41.332364 106.402909l41.844363-22.295273a1184.023273 1184.023273 0 0 0-41.844363-102.725818l-41.332364 18.618182zM539.275636 464.616727v115.432728h-45.009454v43.473454h129.536v-43.426909h-43.147637v-115.432727h39.098182v-41.425455h-120.459636v41.425455h39.982545z m-48.174545 59.578182c-10.612364 1.629091-19.874909 2.885818-27.741091 3.630546 11.217455-13.637818 24.669091-30.906182 40.494545-51.805091l-29.556363-21.876364a214.202182 214.202182 0 0 0-9.588364 15.034182h-15.453091c7.912727-11.357091 17.128727-25.925818 27.741091-43.613091L448.837818 409.6c-4.887273 10.612364-11.450182 22.760727-19.781818 36.445091-8.378182 13.730909-17.966545 22.621091-28.858182 26.717091l13.637818 32.302545c8.936727-1.675636 20.48-3.677091 34.536728-5.911272-9.262545 10.891636-17.082182 19.083636-23.552 24.529454a35.141818 35.141818 0 0 1-21.876364 8.610909l9.076364 40.029091c16.663273-1.396364 44.218182-4.840727 82.711272-10.472727l-3.630545-37.701818z m-4.096 50.455273a673.047273 673.047273 0 0 1-82.292364 12.241454l3.211637 37.515637c12.101818-1.396364 25.460364-3.165091 39.982545-5.445818 14.568727-2.280727 28.206545-4.561455 40.913455-6.842182l-1.861819-37.469091zM802.909091 617.146182c13.172364-0.325818 22.621091-3.956364 28.299636-10.938182a40.727273 40.727273 0 0 0 8.517818-26.530909V508.276364h-37.236363c0.884364-11.077818 2.094545-23.924364 3.584-38.632728 6.050909 8.005818 12.008727 16.058182 17.733818 24.064l23.645091-20.014545 7.726545-7.214546c-14.103273-18.199273-30.626909-37.748364-49.524363-58.647272l-32.302546 25.460363 10.007273 11.357091h-36.770909v-32.302545h-41.425455v32.302545h-52.270545v37.701818h52.270545v25.925819h-68.189091v38.632727h68.189091v80.663273h41.425455V546.909091h52.689454v17.268364c-1.210182 8.936727-6.050909 13.358545-14.568727 13.172363H763.345455l7.726545 39.796364h31.837091z m-56.32-108.916364v-26.344727h14.056727l-2.280727 26.391273h-11.822546z"></path>
</svg>
