<?xml version="1.0" standalone="no"?><!DOCTYPE svg PUBLIC "-//W3C//DTD SVG 1.1//EN" "http://www.w3.org/Graphics/SVG/1.1/DTD/svg11.dtd"><svg t="1751557784179" class="icon" viewBox="0 0 1024 1024" version="1.1" xmlns="http://www.w3.org/2000/svg" p-id="12047" xmlns:xlink="http://www.w3.org/1999/xlink" width="32" height="32"><path d="M529.066667 230.4c8.533333-36.977778 34.133333-108.088889 59.733333-142.222222 5.688889-8.533333 5.688889-19.911111-2.844444-28.444445-8.533333-8.533333-22.755556-5.688889-28.444445 5.688889-28.444444 45.511111-56.888889 119.466667-56.888889 162.133334 0 8.533333 5.688889 14.222222 14.222222 14.222222 5.688889 0 11.377778-2.844444 14.222223-11.377778z" fill="#9A795F" p-id="12048"></path><path d="M713.955556 347.022222c-19.911111-25.6-36.977778-51.2-48.355556-82.488889-14.222222-36.977778-48.355556-59.733333-85.333333-62.577777-5.688889 0-8.533333 0-14.222223 2.844444l-19.911111 14.222222c-19.911111 14.222222-48.355556 14.222222-68.266666 0l-19.911111-14.222222c-2.844444-5.688889-8.533333-5.688889-14.222223-5.688889-36.977778 2.844444-73.955556 25.6-85.333333 62.577778-11.377778 31.288889-28.444444 56.888889-48.355556 82.488889-71.111111 85.333333-116.622222 207.644444-116.622222 304.355555C196.266667 824.888889 338.488889 967.111111 512 967.111111s315.733333-142.222222 315.733333-315.733333c0-99.555556-45.511111-219.022222-113.777777-304.355556z" fill="#8CC63E" p-id="12049"></path><path d="M716.8 349.866667c-2.844444-2.844444-5.688889-5.688889-8.533333-11.377778 56.888889 82.488889 82.488889 184.888889 82.488889 273.066667 0 173.511111-142.222222 315.733333-315.733334 315.733333-76.8 0-147.911111-28.444444-204.8-73.955556 56.888889 68.266667 145.066667 110.933333 241.777778 110.933334 173.511111 0 315.733333-142.222222 315.733333-315.733334 0-93.866667-42.666667-210.488889-110.933333-298.666666z" fill="#7FB239" p-id="12050"></path><path d="M395.377778 409.6c-28.444444 31.288889-62.577778 48.355556-76.8 34.133333s-2.844444-48.355556 25.6-82.488889c28.444444-31.288889 62.577778-48.355556 76.8-34.133333s2.844444 51.2-25.6 82.488889z" fill="#FFFFFF" opacity=".2" p-id="12051"></path></svg>